<svg width="766" height="145" viewBox="0 0 766 145" fill="none" xmlns="http://www.w3.org/2000/svg">
<rect x="496" width="270" height="145" rx="19" fill="#04E762"/>
<rect width="344" height="145" rx="72.5" fill="#F5B700"/>
<path d="M699.966 117.68C692.926 117.68 686.786 115.88 681.546 112.28C676.346 108.64 672.306 103.42 669.426 96.62C666.546 89.78 665.106 81.54 665.106 71.9C665.106 62.42 666.486 54.36 669.246 47.72C672.046 41.04 676.026 35.96 681.186 32.48C686.346 28.96 692.486 27.18 699.606 27.14C705.566 27.1 710.606 28.2 714.726 30.44C718.886 32.68 722.066 36 724.266 40.4C726.506 44.76 727.666 50.16 727.746 56.6H710.406C710.086 55 709.686 53.3 709.206 51.5C708.726 49.66 707.786 48.1 706.386 46.82C704.986 45.5 702.766 44.84 699.726 44.84C696.086 44.84 693.146 45.88 690.906 47.96C688.666 50 687.026 53.04 685.986 57.08C684.946 61.08 684.426 66.02 684.426 71.9C684.426 77.66 684.926 82.64 685.926 86.84C686.966 91.04 688.566 94.28 690.726 96.56C692.886 98.84 695.686 99.98 699.126 99.98C702.006 99.98 704.306 99.56 706.026 98.72C707.786 97.88 709.166 97.04 710.166 96.2V83.66H698.286V67.22H727.326V105.2C725.926 107.16 723.946 109.1 721.386 111.02C718.826 112.94 715.746 114.54 712.146 115.82C708.586 117.06 704.526 117.68 699.966 117.68Z" fill="black"/>
<path d="M612.593 116L589.433 28.76H609.473L621.233 80.84L625.253 99.92H625.613L629.453 80.84L641.273 28.76H661.313L638.153 116H612.593Z" fill="black"/>
<path d="M553.96 117.2C547.64 117.2 541.98 116.16 536.98 114.08C532.02 111.96 528.14 108.7 525.34 104.3C522.58 99.9 521.32 94.28 521.56 87.44H539.86C539.94 90.32 540.44 92.78 541.36 94.82C542.32 96.86 543.84 98.42 545.92 99.5C548.04 100.54 550.84 101.06 554.32 101.06C556.84 101.06 559 100.7 560.8 99.98C562.6 99.22 563.96 98.16 564.88 96.8C565.84 95.44 566.32 93.84 566.32 92C566.32 89.96 565.7 88.34 564.46 87.14C563.26 85.94 561.4 84.8 558.88 83.72C556.36 82.64 553.16 81.28 549.28 79.64C544.4 77.56 540.02 75.32 536.14 72.92C532.3 70.52 529.28 67.64 527.08 64.28C524.88 60.88 523.78 56.68 523.78 51.68C523.78 46.4 525 41.96 527.44 38.36C529.92 34.72 533.36 31.98 537.76 30.14C542.2 28.3 547.36 27.38 553.24 27.38C562.32 27.38 569.26 29.66 574.06 34.22C578.86 38.74 581.56 45.44 582.16 54.32H564.22C564.14 52 563.64 50.04 562.72 48.44C561.8 46.84 560.54 45.62 558.94 44.78C557.34 43.94 555.46 43.52 553.3 43.52C550.02 43.52 547.36 44.16 545.32 45.44C543.28 46.68 542.26 48.66 542.26 51.38C542.26 53.46 542.74 55.2 543.7 56.6C544.66 58 546.24 59.32 548.44 60.56C550.68 61.8 553.64 63.24 557.32 64.88C560.8 66.4 564.2 67.82 567.52 69.14C570.84 70.42 573.82 71.92 576.46 73.64C579.1 75.32 581.2 77.54 582.76 80.3C584.36 83.02 585.16 86.58 585.16 90.98C585.2 96.58 583.88 101.34 581.2 105.26C578.52 109.18 574.82 112.16 570.1 114.2C565.42 116.2 560.04 117.2 553.96 117.2Z" fill="black"/>
<path d="M420.801 116.556C417.439 116.556 414.534 115.852 412.087 114.443C409.664 113.034 407.798 111.031 406.488 108.436C405.178 105.815 404.523 102.701 404.523 99.0915C404.523 94.3453 405.425 90.1429 407.229 86.4843C409.034 82.801 411.531 79.9211 414.72 77.8447C417.933 75.7682 421.616 74.7299 425.769 74.7299C429.181 74.7299 432.098 75.4468 434.52 76.8806C436.943 78.3143 438.797 80.3414 440.082 82.9617C441.368 85.582 442.01 88.6844 442.01 92.2688C442.01 97.015 441.108 101.217 439.304 104.876C437.499 108.535 435.002 111.402 431.813 113.479C428.649 115.53 424.978 116.556 420.801 116.556ZM421.987 107.472C423.742 107.472 425.287 106.854 426.622 105.618C427.982 104.382 429.032 102.651 429.774 100.426C430.54 98.2016 430.924 95.606 430.924 92.6396C430.924 89.5249 430.318 87.2877 429.107 85.9281C427.92 84.5685 426.412 83.8887 424.583 83.8887C422.803 83.8887 421.233 84.482 419.874 85.6685C418.539 86.8551 417.488 88.5361 416.722 90.7114C415.98 92.8868 415.609 95.4453 415.609 98.387C415.609 101.675 416.203 104.011 417.389 105.395C418.576 106.779 420.109 107.472 421.987 107.472Z" fill="black"/>
<path d="M381.339 116.63C379.263 116.63 377.36 116.371 375.629 115.852C373.899 115.333 372.44 114.517 371.254 113.404C370.067 112.292 369.214 110.846 368.695 109.066C368.201 107.286 368.114 105.136 368.436 102.614L370.253 88.7091C370.351 88.0911 370.586 87.5473 370.957 87.0776C371.328 86.5832 371.835 86.1877 372.477 85.891C373.12 85.5697 373.899 85.3472 374.813 85.2236L371.847 77.1401L371.995 75.9165L376 61.3441H384.528L382.489 78.6975L381.784 82.6651L379.374 102.54C379.176 104.27 379.535 105.469 380.45 106.137C381.389 106.804 382.872 107.138 384.899 107.138C386.951 107.138 388.879 106.928 390.684 106.508C392.488 106.063 394.379 105.346 396.357 104.357L395.393 114.146C393.959 114.937 392.056 115.555 389.682 116C387.309 116.42 384.528 116.63 381.339 116.63ZM361.168 85.2236L362.243 75.5086H394.948L393.91 85.2236H361.168Z" fill="black"/>
<path d="M255.107 116.78C252.187 116.78 249.647 116.22 247.487 115.1C245.327 113.98 243.547 112.36 242.147 110.24C240.787 108.12 239.807 105.58 239.207 102.62L237.107 97.1L239.807 93.56C240.247 95.12 240.887 96.5 241.727 97.7C242.567 98.86 243.607 99.78 244.847 100.46C246.087 101.1 247.527 101.42 249.167 101.42C251.647 101.42 253.847 100.7 255.767 99.26C257.727 97.82 259.267 95.7 260.387 92.9C261.547 90.1 262.127 86.68 262.127 82.64C262.127 75.96 261.027 71.28 258.827 68.6C256.667 65.92 253.947 64.58 250.667 64.58C249.067 64.58 247.487 64.98 245.927 65.78C244.367 66.58 243.027 67.64 241.907 68.96C240.827 70.28 240.127 71.7 239.807 73.22L239.147 70.58L239.807 66.14C240.727 62.58 241.927 59.56 243.407 57.08C244.927 54.56 246.887 52.64 249.287 51.32C251.727 49.96 254.767 49.28 258.407 49.28C262.367 49.28 266.027 50.54 269.387 53.06C272.747 55.58 275.447 59.32 277.487 64.28C279.567 69.2 280.607 75.3 280.607 82.58C280.607 89.58 279.467 95.64 277.187 100.76C274.947 105.88 271.907 109.84 268.067 112.64C264.227 115.4 259.907 116.78 255.107 116.78ZM221.387 116V22.34H239.807V55.04V97.16L239.327 100.46L239.147 104.78L238.247 116H221.387Z" fill="black"/>
<path d="M178.654 116.9C172.094 116.9 166.514 115.58 161.914 112.94C157.314 110.3 153.794 106.48 151.354 101.48C148.954 96.48 147.754 90.44 147.754 83.36C147.754 75.96 149.034 69.72 151.594 64.64C154.154 59.56 157.754 55.72 162.394 53.12C167.034 50.52 172.454 49.22 178.654 49.22C187.614 49.22 194.374 51.88 198.934 57.2C203.534 62.48 205.834 69.96 205.834 79.64C205.834 80.72 205.794 81.84 205.714 83C205.674 84.16 205.614 85.38 205.534 86.66H166.174C166.454 90.34 166.994 93.36 167.794 95.72C168.634 98.04 169.874 99.76 171.514 100.88C173.194 101.96 175.414 102.5 178.174 102.5C180.654 102.5 182.694 101.8 184.294 100.4C185.894 99 186.834 97.08 187.114 94.64H205.114C204.794 99.12 203.454 103.04 201.094 106.4C198.774 109.72 195.694 112.3 191.854 114.14C188.014 115.98 183.614 116.9 178.654 116.9ZM165.814 82.34C166.134 79.98 166.934 78.4 168.214 77.6C169.534 76.76 171.214 76.34 173.254 76.34H187.774C187.734 72.14 186.954 69 185.434 66.92C183.954 64.84 181.474 63.8 177.994 63.8C173.754 63.8 170.634 65.26 168.634 68.18C166.674 71.06 165.734 75.78 165.814 82.34Z" fill="black"/>
<path d="M79.7604 116L66.9204 28.76H84.3804L88.9404 91.7C89.1004 93.86 89.2804 96 89.4804 98.12C89.6804 100.24 89.8604 102.38 90.0204 104.54H90.4404L92.3004 84.02L96.0204 49.76H113.48L117.14 84.02L119 104.54H119.48C119.64 102.38 119.8 100.24 119.96 98.12C120.16 96 120.34 93.86 120.5 91.7L125.12 28.76H142.52L129.8 116H111.38L107.66 89.9C106.98 85.02 106.46 80.44 106.1 76.16C105.74 71.88 105.34 67.3 104.9 62.42H104.54C104.1 67.3 103.7 71.88 103.34 76.16C102.98 80.44 102.46 85.02 101.78 89.9L98.1804 116H79.7604Z" fill="black"/>
</svg>
